<?xml version="1.0" encoding="utf-8"?>
<!-- Generator: Adobe Illustrator 25.0.0, SVG Export Plug-In . SVG Version: 6.00 Build 0)  -->
<svg version="1.1" id="Capa_1" xmlns="http://www.w3.org/2000/svg" xmlns:xlink="http://www.w3.org/1999/xlink" x="0px" y="0px"
	 viewBox="0 0 448.1 113.4" style="enable-background:new 0 0 448.1 113.4;" xml:space="preserve">
<style type="text/css">
	.st0{enable-background:new    ;}
	.st1{fill:#006B68;}
	.st2{clip-path:url(#SVGID_2_);fill:none;stroke:#FFFFFF;stroke-width:4.85;}
	.st3{clip-path:url(#SVGID_4_);fill:none;stroke:#FFFFFF;stroke-width:4.85;}
	.st4{fill:#818181;}
</style>
<g class="st0">
	<g>
		<path class="st1" d="M229.9,75.4c3,0.6,8.5,1,15.3,1c10.1,0,17.8-1.4,22.9-4.6c4.8-3,8.3-7.6,8.3-13.7c0-6.4-3.7-10.9-9.6-12.6
			v-0.4c6.6-1.8,12.3-6.4,12.3-13.7c0-4.9-3-8.6-7-10.6c-4.1-2.3-8.7-3.1-15.1-3.1c-6,0-11.6,0.6-16,1.4L229.9,75.4z M253.6,46.8
			c5.3,0.8,9.6,4.7,9.2,10.9c-0.4,6.3-6.4,9.1-13.4,9.1c-1.9,0-3.4-0.1-5-0.3l3.2-16.3l1.7-7.6l0.3-1.5l2.7-13.3
			c1-0.3,2.8-0.4,5.1-0.4c5,0,8.6,1.8,8.6,6c0,4.7-4.5,7.6-11.1,7.8 M161.6,76.1l4-20.3c1.8-9.1,3.2-17.4,4-22.9l0.3-0.1
			c1.6,7.1,3.2,12.4,6,20.2l8.5,23.1h13.4l11.5-57.9h-12.2l-4.1,21c-1.7,8.5-2.5,14.9-2.8,20.8h-0.3c-1.4-6.4-3.1-12.4-5.5-19.8
			l-8-22.1h-15.3l-11.5,58H161.6z M104.5,18.2l-6.4,32.3c-0.5,2.7-0.9,5.6-0.9,8.1c0,12.4,7.7,18.5,20.2,18.5
			c16.5,0,24.6-8.4,28.1-25.9l6.6-32.9h-13l-6.7,33.4c-2.2,10.7-6.7,15-13.4,15c-5.9,0-8.8-3.6-8.8-8.2c0-2.6,0.2-4.9,0.6-6.9
			l6.7-33.3h-13V18.2z M229.9,28.8l2.1-10.6h-13l-2.1,10.6 M207.5,76.1h13l8.3-42h-13"/>
		<path class="st1" d="M44,84.4c22.4,0,40.6-18.2,40.6-40.6S66.4,3.2,44,3.2S3.5,21.5,3.5,43.9S21.6,84.4,44,84.4"/>
	</g>
	<g>
		<g>
			<defs>
				<circle id="SVGID_1_" cx="44" cy="43.9" r="40.6"/>
			</defs>
			<clipPath id="SVGID_2_">
				<use xlink:href="#SVGID_1_"  style="overflow:visible;"/>
			</clipPath>
			<line class="st2" x1="42.5" y1="1.4" x2="26.9" y2="81.4"/>
		</g>
		<g>
			<defs>
				<circle id="SVGID_3_" cx="44" cy="43.9" r="40.6"/>
			</defs>
			<clipPath id="SVGID_4_">
				<use xlink:href="#SVGID_3_"  style="overflow:visible;"/>
			</clipPath>
			<line class="st3" x1="82.8" y1="59.5" x2="5.4" y2="59.5"/>
		</g>
	</g>
	<g>
		<g>
			<path d="M432.5,76h1.8l1.2-3.1h5.9l1.2,3.1h1.9l-5.1-12.4h-1.8L432.5,76z M440.8,71.5h-4.7l2.4-6.1L440.8,71.5z M421.2,76h1.7
				V65.9l0,0l5.4,10.2h2.2V63.7h-1.7v10l0,0l-5.3-10h-2.3L421.2,76L421.2,76z M407.4,76h1.8l1.2-3.1h5.9l1.2,3.1h1.9l-5.1-12.4h-1.8
				L407.4,76z M415.7,71.5h-4.8l2.4-6.1L415.7,71.5z M406.4,64c-0.4-0.2-0.9-0.3-1.3-0.4s-0.9-0.1-1.4-0.1c-0.9,0-1.8,0.1-2.5,0.5
				c-0.8,0.3-1.4,0.7-2,1.3c-0.6,0.6-1,1.2-1.3,2s-0.5,1.6-0.5,2.6s0.2,1.9,0.5,2.7c0.3,0.8,0.7,1.5,1.3,2c0.5,0.6,1.2,1,2,1.3
				s1.6,0.5,2.6,0.5c0.4,0,0.8,0,1.3-0.1c0.5,0,1-0.2,1.4-0.4l-0.1-1.7c-0.1,0.1-0.3,0.2-0.5,0.2c-0.2,0.1-0.4,0.1-0.7,0.2
				c-0.2,0.1-0.5,0.1-0.7,0.1s-0.5,0-0.7,0c-0.6,0-1.2-0.1-1.8-0.3c-0.5-0.2-1-0.6-1.4-1s-0.7-0.9-1-1.5c-0.2-0.6-0.4-1.3-0.4-2
				s0.1-1.3,0.3-1.9c0.2-0.6,0.5-1.1,0.9-1.5s0.9-0.8,1.5-1s1.2-0.4,1.9-0.4c0.9,0,1.7,0.2,2.5,0.7L406.4,64z M393.1,76h1.7V63.7
				h-1.7V76z M382.3,76h1.7v-5.5h1c0.2,0,0.4,0,0.6,0s0.4,0.1,0.5,0.1c0.2,0.1,0.3,0.2,0.4,0.4c0.1,0.2,0.3,0.4,0.4,0.7l1.8,4.3h2
				l-2.3-4.9c-0.2-0.4-0.4-0.7-0.5-0.8c-0.2-0.2-0.4-0.3-0.6-0.4l0,0c0.3-0.1,0.7-0.2,1-0.3c0.3-0.2,0.6-0.4,0.8-0.6
				c0.2-0.2,0.4-0.5,0.5-0.8s0.2-0.7,0.2-1c0-0.7-0.1-1.3-0.4-1.8c-0.3-0.4-0.6-0.8-1-1s-0.9-0.4-1.5-0.5s-1.1-0.1-1.7-0.1h-2.9V76z
				 M384,65.2h1.6c0.8,0,1.4,0.2,1.8,0.5s0.6,0.8,0.6,1.3c0,0.6-0.2,1.1-0.7,1.4s-1.1,0.5-1.9,0.5h-1.5v-3.7H384z M372.8,76h6.7
				v-1.6h-5v-4.1h4.5v-1.6h-4.5v-3.6h5v-1.6h-6.7V76z M356.3,76h1.7V65.3l0,0l4,10.7h1.7l4-10.7l0,0V76h1.7V63.7h-2.8L362.9,74
				l-3.8-10.3h-2.8L356.3,76L356.3,76z M342.4,76h1.8l1.2-3.1h5.9l1.2,3.1h1.9l-5.1-12.4h-1.8L342.4,76z M350.8,71.5H346l2.4-6.1
				L350.8,71.5z M331.7,68c0.2-0.6,0.4-1.1,0.7-1.6c0.3-0.4,0.7-0.8,1.2-1.1c0.5-0.3,1.1-0.4,1.7-0.4c0.7,0,1.2,0.1,1.7,0.4
				s0.9,0.6,1.2,1.1c0.3,0.4,0.6,1,0.7,1.6c0.2,0.6,0.2,1.2,0.2,1.8c0,0.6-0.1,1.2-0.2,1.8c-0.2,0.6-0.4,1.1-0.7,1.6
				c-0.3,0.5-0.7,0.8-1.2,1.1c-0.5,0.3-1.1,0.4-1.8,0.4c-0.7,0-1.3-0.1-1.8-0.4s-0.9-0.6-1.2-1.1c-0.3-0.5-0.6-1-0.7-1.6
				c-0.2-0.6-0.2-1.2-0.2-1.8C331.4,69.2,331.5,68.6,331.7,68 M330,72.4c0.3,0.8,0.6,1.5,1.1,2c0.5,0.6,1.1,1,1.8,1.3
				c0.7,0.3,1.5,0.5,2.4,0.5s1.7-0.2,2.4-0.5c0.7-0.3,1.3-0.8,1.8-1.3c0.5-0.6,0.9-1.2,1.1-2c0.3-0.8,0.4-1.6,0.4-2.6
				c0-0.9-0.1-1.8-0.4-2.6c-0.3-0.8-0.6-1.5-1.1-2c-0.5-0.6-1.1-1-1.8-1.3c-0.7-0.3-1.5-0.5-2.4-0.5s-1.7,0.2-2.4,0.5
				c-0.7,0.3-1.3,0.8-1.8,1.3c-0.5,0.6-0.9,1.2-1.1,2c-0.3,0.8-0.4,1.6-0.4,2.6C329.6,70.8,329.7,71.7,330,72.4 M319.5,76h1.7v-5.5
				h1c0.2,0,0.4,0,0.6,0s0.4,0.1,0.5,0.1c0.2,0.1,0.3,0.2,0.4,0.4c0.1,0.2,0.3,0.4,0.4,0.7l1.8,4.3h2l-2.3-4.9
				c-0.2-0.4-0.4-0.7-0.5-0.8c-0.2-0.2-0.4-0.3-0.6-0.4l0,0c0.3-0.1,0.7-0.2,1-0.3c0.3-0.2,0.6-0.4,0.8-0.6c0.2-0.2,0.4-0.5,0.5-0.8
				s0.2-0.7,0.2-1c0-0.7-0.1-1.3-0.4-1.8c-0.3-0.4-0.6-0.8-1-1s-0.9-0.4-1.5-0.5s-1.1-0.1-1.7-0.1h-2.9V76z M321.2,65.2h1.6
				c0.8,0,1.4,0.2,1.8,0.5s0.6,0.8,0.6,1.3c0,0.6-0.2,1.1-0.7,1.4s-1.1,0.5-1.9,0.5h-1.5v-3.7H321.2z M309.9,76h6.7v-1.6h-5v-4.1
				h4.5v-1.6h-4.5v-3.6h5v-1.6h-6.7V76z M299.1,76h3.2c0.6,0,1.2,0,1.7-0.1s1-0.3,1.5-0.5c0.4-0.2,0.7-0.6,1-1
				c0.2-0.4,0.4-1,0.4-1.6c0-0.4-0.1-0.8-0.2-1.2c-0.1-0.3-0.3-0.7-0.6-0.9c-0.2-0.3-0.5-0.5-0.9-0.6c-0.3-0.2-0.7-0.2-1.1-0.3l0,0
				c0.8-0.2,1.4-0.5,1.8-1s0.7-1.1,0.7-2c0-0.6-0.1-1-0.3-1.4c-0.2-0.4-0.5-0.7-0.9-1c-0.4-0.2-0.8-0.4-1.3-0.5s-1.1-0.2-1.7-0.2
				h-3.3V76z M300.8,70.4h1.1c0.4,0,0.7,0,1.1,0.1c0.4,0,0.7,0.1,1,0.3c0.3,0.2,0.5,0.4,0.7,0.7c0.2,0.3,0.3,0.7,0.3,1.1
				s-0.1,0.8-0.2,1c-0.2,0.3-0.4,0.5-0.6,0.6c-0.3,0.1-0.6,0.2-0.9,0.3c-0.4,0.1-0.7,0.1-1.1,0.1h-1.3v-4.2H300.8z M300.8,65.1h1.8
				c0.3,0,0.5,0,0.8,0.1s0.5,0.2,0.7,0.3c0.2,0.1,0.4,0.3,0.5,0.6c0.1,0.2,0.2,0.5,0.2,0.9c0,0.5-0.1,0.8-0.2,1.1
				c-0.2,0.3-0.4,0.5-0.7,0.6c-0.3,0.1-0.6,0.2-1,0.3c-0.4,0-0.8,0.1-1.2,0.1h-0.9L300.8,65.1L300.8,65.1z M294.3,76h1.7V63.7h-1.7
				V76z"/>
			<path d="M421.2,53.4h6.7v-1.6h-5V41h-1.7V53.4z M407.4,53.4h1.8l1.2-3.1h5.9l1.2,3.1h1.9L414.3,41h-1.8L407.4,53.4z M415.7,48.8
				h-4.8l2.4-6.1L415.7,48.8z M396.1,53.4h1.7V43.2l0,0l5.4,10.2h2.2V41h-1.7v10l0,0l-5.3-10h-2.3V53.4z M384,45.4
				c0.2-0.6,0.4-1.1,0.7-1.6c0.3-0.4,0.7-0.8,1.2-1.1c0.5-0.3,1.1-0.4,1.7-0.4s1.2,0.1,1.7,0.4s0.9,0.6,1.2,1.1
				c0.3,0.4,0.6,1,0.7,1.6c0.2,0.6,0.2,1.2,0.2,1.8c0,0.6-0.1,1.2-0.2,1.8c-0.2,0.6-0.4,1.1-0.7,1.6c-0.3,0.5-0.7,0.8-1.2,1.1
				c-0.5,0.3-1.1,0.4-1.8,0.4c-0.7,0-1.3-0.1-1.8-0.4s-0.9-0.6-1.2-1.1c-0.3-0.5-0.6-1-0.7-1.6c-0.2-0.6-0.2-1.2-0.2-1.8
				C383.8,46.6,383.9,46,384,45.4 M382.4,49.8c0.3,0.8,0.6,1.5,1.1,2c0.5,0.6,1.1,1,1.8,1.3c0.7,0.3,1.5,0.5,2.4,0.5
				s1.7-0.2,2.4-0.5c0.7-0.3,1.3-0.8,1.8-1.3s0.9-1.2,1.1-2c0.3-0.8,0.4-1.6,0.4-2.6c0-0.9-0.1-1.8-0.4-2.6c-0.3-0.8-0.6-1.5-1.1-2
				c-0.5-0.6-1.1-1-1.8-1.3c-0.7-0.3-1.5-0.5-2.4-0.5s-1.7,0.2-2.4,0.5c-0.7,0.3-1.3,0.8-1.8,1.3c-0.5,0.6-0.9,1.2-1.1,2
				c-0.3,0.8-0.4,1.6-0.4,2.6C382,48.1,382.1,49,382.4,49.8 M377.6,53.4h1.7V41h-1.7V53.4z M375.4,41.3c-0.4-0.2-0.9-0.3-1.3-0.4
				s-0.9-0.1-1.4-0.1c-0.9,0-1.8,0.2-2.5,0.5c-0.8,0.3-1.4,0.7-2,1.3c-0.6,0.6-1,1.2-1.3,2s-0.5,1.6-0.5,2.6s0.2,1.9,0.5,2.7
				c0.3,0.8,0.7,1.5,1.3,2c0.5,0.6,1.2,1,2,1.3s1.6,0.5,2.6,0.5c0.4,0,0.8,0,1.3-0.1c0.5,0,1-0.2,1.4-0.4l-0.1-1.7
				c-0.1,0.1-0.3,0.2-0.5,0.2c-0.2,0.1-0.4,0.1-0.7,0.2c-0.2,0.1-0.5,0.1-0.7,0.1s-0.5,0-0.7,0c-0.6,0-1.2-0.1-1.8-0.3
				c-0.5-0.2-1-0.6-1.4-1s-0.7-0.9-1-1.5c-0.2-0.6-0.4-1.3-0.4-2s0.1-1.3,0.3-1.9c0.2-0.6,0.5-1.1,0.9-1.5s0.9-0.8,1.5-1
				s1.2-0.4,1.9-0.4c0.9,0,1.7,0.2,2.5,0.7L375.4,41.3z M353.1,53.4h1.8l1.2-3.1h5.9l1.2,3.1h1.9L360,41h-1.8L353.1,53.4z
				 M361.4,48.8h-4.8l2.4-6.1L361.4,48.8z M341.8,53.4h1.7V43.2l0,0l5.4,10.2h2.2V41h-1.7v10l0,0l-5.3-10h-2.3L341.8,53.4
				L341.8,53.4z M331.1,53.4h1.7v-5.5h1c0.2,0,0.4,0,0.6,0s0.4,0.1,0.5,0.1c0.2,0.1,0.3,0.2,0.4,0.4c0.1,0.2,0.3,0.4,0.4,0.7
				l1.8,4.3h2l-2.3-4.9c-0.2-0.4-0.4-0.7-0.5-0.8c-0.2-0.2-0.4-0.3-0.6-0.4l0,0c0.3-0.1,0.7-0.2,1-0.3c0.3-0.2,0.6-0.4,0.8-0.6
				c0.2-0.2,0.4-0.5,0.5-0.8s0.2-0.7,0.2-1c0-0.7-0.1-1.3-0.4-1.8c-0.3-0.4-0.6-0.8-1-1s-0.9-0.4-1.5-0.5s-1.1-0.1-1.7-0.1h-2.9
				V53.4z M332.8,42.6h1.6c0.8,0,1.4,0.2,1.8,0.5s0.6,0.8,0.6,1.3c0,0.6-0.2,1.1-0.7,1.4s-1.1,0.5-1.9,0.5h-1.5v-3.7H332.8z
				 M321.6,53.4h6.7v-1.6h-5v-4.1h4.5v-1.6h-4.5v-3.6h5v-1.6h-6.7V53.4z M314.2,53.4h1.7V42.6h3.7V41h-9.2v1.6h3.7L314.2,53.4
				L314.2,53.4z M299.2,53.4h1.7V43.2l0,0l5.4,10.2h2.2V41h-1.7v10l0,0l-5.3-10h-2.3L299.2,53.4L299.2,53.4z M294.3,53.4h1.7V41
				h-1.7V53.4z"/>
			<path d="M395.1,30.7h3.5c1,0,1.9-0.1,2.7-0.4c0.8-0.3,1.5-0.7,2-1.2s1-1.2,1.3-2s0.4-1.7,0.4-2.7s-0.2-1.8-0.5-2.6
				s-0.8-1.4-1.4-1.9s-1.3-0.9-2-1.2c-0.8-0.3-1.6-0.4-2.5-0.4h-3.5V30.7z M396.8,19.9h2c0.6,0,1.2,0.1,1.7,0.3s1,0.5,1.4,0.9
				s0.7,0.9,0.9,1.4c0.2,0.6,0.3,1.2,0.3,1.9c0,1.6-0.4,2.8-1.2,3.5c-0.8,0.8-1.9,1.1-3.4,1.1h-1.8v-9.1H396.8z M381.3,30.7h1.8
				l1.2-3.1h5.9l1.2,3.1h1.9l-5.1-12.4h-1.8L381.3,30.7z M389.6,26.2h-4.8l2.4-6.1L389.6,26.2z M369.9,30.7h3.5c1,0,1.9-0.1,2.7-0.4
				c0.8-0.3,1.5-0.7,2-1.2c0.6-0.5,1-1.2,1.3-2s0.4-1.7,0.4-2.7s-0.2-1.8-0.5-2.6s-0.8-1.4-1.4-1.9s-1.3-0.9-2-1.2s-1.6-0.4-2.5-0.4
				h-3.5V30.7z M371.6,19.9h2c0.6,0,1.2,0.1,1.7,0.3s1,0.5,1.4,0.9s0.7,0.9,0.9,1.4c0.2,0.6,0.3,1.2,0.3,1.9c0,1.6-0.4,2.8-1.2,3.5
				c-0.8,0.8-1.9,1.1-3.4,1.1h-1.8v-9.1H371.6z M365.1,30.7h1.7V18.4h-1.7V30.7z M362,18.6c-0.4-0.2-0.8-0.3-1.3-0.3
				c-0.4-0.1-0.9-0.1-1.3-0.1c-0.5,0-1,0.1-1.5,0.2c-0.5,0.1-0.9,0.4-1.2,0.6c-0.3,0.3-0.6,0.6-0.8,1.1c-0.2,0.4-0.3,0.9-0.3,1.4
				c0,0.6,0.1,1.2,0.4,1.6c0.3,0.4,0.6,0.8,1,1c0.4,0.3,0.8,0.5,1.2,0.7c0.4,0.2,0.9,0.4,1.2,0.6c0.4,0.2,0.7,0.5,1,0.8
				s0.4,0.7,0.4,1.1c0,0.4-0.1,0.7-0.2,0.9c-0.2,0.3-0.3,0.5-0.6,0.6s-0.5,0.3-0.8,0.4s-0.5,0.1-0.8,0.1c-0.2,0-0.4,0-0.7-0.1
				c-0.2,0-0.5-0.1-0.7-0.2c-0.2-0.1-0.4-0.1-0.6-0.2c-0.2-0.1-0.4-0.1-0.5-0.2l-0.2,1.6c0.4,0.1,0.8,0.2,1.2,0.4
				c0.4,0.1,0.8,0.2,1.2,0.2c0.6,0,1.2-0.1,1.7-0.2c0.5-0.1,1-0.4,1.4-0.6c0.4-0.3,0.7-0.7,0.9-1.1c0.2-0.5,0.3-1,0.3-1.7
				s-0.1-1.2-0.4-1.7c-0.3-0.4-0.6-0.8-1-1.1s-0.8-0.6-1.2-0.8c-0.4-0.2-0.9-0.4-1.2-0.6c-0.4-0.2-0.7-0.4-1-0.7s-0.4-0.6-0.4-1
				c0-0.3,0.1-0.6,0.2-0.8s0.3-0.4,0.5-0.5s0.4-0.2,0.7-0.3s0.5-0.1,0.7-0.1s0.4,0,0.6,0s0.4,0.1,0.5,0.1c0.2,0,0.3,0.1,0.5,0.2
				c0.2,0.1,0.4,0.1,0.6,0.2L362,18.6z M345.6,30.7h1.7v-5.5h1c0.2,0,0.4,0,0.6,0s0.4,0.1,0.5,0.1c0.2,0.1,0.3,0.2,0.4,0.4
				s0.3,0.4,0.4,0.7l1.8,4.3h2l-2.3-4.9c-0.2-0.4-0.4-0.7-0.5-0.8c-0.2-0.2-0.4-0.3-0.6-0.4l0,0c0.3-0.1,0.7-0.2,1-0.3
				c0.3-0.2,0.6-0.4,0.8-0.6c0.2-0.2,0.4-0.5,0.5-0.8s0.2-0.7,0.2-1c0-0.7-0.1-1.3-0.4-1.8c-0.3-0.4-0.6-0.8-1-1s-0.9-0.4-1.5-0.5
				s-1.1-0.1-1.7-0.1h-2.9V30.7z M347.3,19.9h1.6c0.8,0,1.4,0.2,1.8,0.5s0.6,0.8,0.6,1.3c0,0.6-0.2,1.1-0.7,1.4
				c-0.5,0.3-1.1,0.5-1.9,0.5h-1.5v-3.7H347.3z M336,30.7h6.7v-1.6h-5v-4h4.5v-1.6h-4.5v-3.6h5v-1.6H336V30.7z M334.2,18.4h-1.8
				l-3.8,10.8l0,0l-3.7-10.8H323l4.5,12.4h2.1L334.2,18.4z M319.4,30.7h1.7V18.4h-1.7V30.7z M306.8,30.7h1.7V20.6l0,0l5.4,10.2h2.2
				V18.4h-1.7v10l0,0l-5.3-10h-2.3L306.8,30.7L306.8,30.7z M303.6,18.4h-1.7v7c0,0.6,0,1.1-0.1,1.6s-0.3,0.9-0.5,1.3
				c-0.2,0.4-0.5,0.6-0.9,0.8s-0.8,0.3-1.4,0.3c-0.5,0-1-0.1-1.4-0.3s-0.7-0.5-0.9-0.8c-0.2-0.4-0.4-0.8-0.5-1.3s-0.1-1-0.1-1.6v-7
				h-1.7v7.3c0,1.8,0.4,3.1,1.2,4s2,1.4,3.4,1.4c1.5,0,2.6-0.5,3.4-1.4s1.2-2.2,1.2-4V18.4z"/>
		</g>
	</g>
</g>
<g>
	<path class="st4" d="M297.5,92c-1.5,2-2.6,4.7-2.6,8.5c0,3.7,1.1,6.3,2.6,8.4h-1.4c-1.3-1.7-2.7-4.4-2.7-8.4c0-4,1.4-6.7,2.7-8.4
		H297.5z"/>
	<path class="st4" d="M299.5,92.6c0.9-0.1,2-0.3,3.4-0.3c1.8,0,3.1,0.4,3.9,1.2c0.7,0.7,1.2,1.7,1.2,2.9c0,1.3-0.4,2.3-1.1,3
		c-1,1-2.5,1.5-4.3,1.5c-0.5,0-1,0-1.4-0.1v5.6h-1.8V92.6z M301.3,99.3c0.4,0.1,0.9,0.1,1.5,0.1c2.2,0,3.5-1.1,3.5-3
		c0-1.9-1.3-2.7-3.3-2.7c-0.8,0-1.4,0.1-1.7,0.1V99.3z"/>
	<path class="st4" d="M310.5,92.6c0.9-0.2,2.2-0.3,3.4-0.3c1.9,0,3.2,0.4,4,1.1c0.7,0.6,1.1,1.6,1.1,2.7c0,1.8-1.2,3-2.6,3.5v0.1
		c1.1,0.4,1.7,1.4,2,2.8c0.5,1.9,0.8,3.3,1.1,3.8h-1.9c-0.2-0.4-0.5-1.6-0.9-3.3c-0.4-1.9-1.2-2.6-2.8-2.7h-1.7v6h-1.8V92.6z
		 M312.3,98.9h1.8c1.9,0,3.1-1.1,3.1-2.6c0-1.8-1.3-2.6-3.2-2.6c-0.9,0-1.5,0.1-1.8,0.1V98.9z"/>
	<path class="st4" d="M330.1,100.1v1.3H325v-1.3H330.1z"/>
	<path class="st4" d="M343.9,99.8h-5.4v5h6v1.5h-7.8V92.4h7.5v1.5h-5.7v4.4h5.4V99.8z"/>
	<path class="st4" d="M354,99.8h-5.4v5h6v1.5h-7.8V92.4h7.5v1.5h-5.7v4.4h5.4V99.8z"/>
	<path class="st4" d="M356.4,105.3c0-0.7,0.5-1.3,1.2-1.3s1.2,0.5,1.2,1.3c0,0.7-0.5,1.3-1.3,1.3C356.9,106.6,356.4,106,356.4,105.3
		z"/>
	<path class="st4" d="M363,92.4v8.3c0,3.1,1.4,4.4,3.2,4.4c2,0,3.4-1.4,3.4-4.4v-8.3h1.8v8.1c0,4.3-2.2,6-5.3,6c-2.8,0-5-1.6-5-5.9
		v-8.2H363z"/>
	<path class="st4" d="M376.4,92.4v8.3c0,3.1,1.4,4.4,3.2,4.4c2,0,3.4-1.4,3.4-4.4v-8.3h1.8v8.1c0,4.3-2.2,6-5.3,6
		c-2.8,0-5-1.6-5-5.9v-8.2H376.4z"/>
	<path class="st4" d="M386.9,105.3c0-0.7,0.5-1.3,1.2-1.3s1.2,0.5,1.2,1.3c0,0.7-0.5,1.3-1.3,1.3C387.4,106.6,386.9,106,386.9,105.3
		z"/>
	<path class="st4" d="M390.5,108.8c1.4-2,2.6-4.7,2.6-8.4s-1.1-6.3-2.6-8.4h1.4c1.3,1.7,2.7,4.4,2.7,8.4c0,4-1.4,6.7-2.7,8.4H390.5z
		"/>
</g>
</svg>
